<?xml version="1.0" encoding="UTF-8" standalone="no"?>
<!-- Created with Inkscape (http://www.inkscape.org/) -->
<svg id="svg2" xmlns:rdf="http://www.w3.org/1999/02/22-rdf-syntax-ns#" xmlns="http://www.w3.org/2000/svg" height="38.2" width="245.1" version="1.1" xmlns:cc="http://creativecommons.org/ns#" xmlns:dc="http://purl.org/dc/elements/1.1/">
 <metadata id="metadata7">
  <rdf:RDF>
   <cc:Work rdf:about="">
    <dc:format>image/svg+xml</dc:format>
    <dc:type rdf:resource="http://purl.org/dc/dcmitype/StillImage"/>
    <dc:title/>
   </cc:Work>
  </rdf:RDF>
 </metadata>
 <g id="layer1" transform="translate(-98.12,-234.52218)">
  <g id="text2985" style="writing-mode:lr-tb;letter-spacing:0px;text-anchor:start;word-spacing:0px;text-align:start;" font-weight="normal" font-size="40px" font-stretch="normal" font-variant="normal" font-style="normal" font-family="The Serif-" line-height="125%">
   <path id="path3800" fill="#FFF" d="m117.84,243.12c-0.00002-2.4266-0.82669-4.3466-2.48-5.76-1.6267-1.44-4.0134-2.16-7.16-2.16-0.66668,0.00003-1.36,0.0134-2.08,0.04-0.69334,0.00003-1.36,0.0134-2,0.04-0.64001,0.0267-1.2267,0.0534-1.76,0.08-0.53334,0.00003-0.96,0.00003-1.28,0h-2.96v2.12c1.0667,0.29336,2.2267,0.48003,3.48,0.56v21.64c-1.2533,0.08-2.4133,0.26667-3.48,0.56v2.12h10.6v-2.12c-1.0667-0.29333-2.2267-0.47999-3.48-0.56v-7.64c0.37332,0.0533,0.73332,0.08,1.08,0.08,0.37332,0.00001,0.74666,0.00001,1.12,0,1.52,0.00001,2.9066-0.21332,4.16-0.64,1.28-0.45332,2.3733-1.08,3.28-1.88,0.93331-0.79998,1.6533-1.7466,2.16-2.84,0.53331-1.0933,0.79998-2.3066,0.8-3.64m-3.8,0.36c-0.00002,1.7067-0.60002,3.0667-1.8,4.08-1.1734,0.98668-2.7734,1.4934-4.8,1.52-0.37334,0.00002-0.74668-0.0133-1.12-0.04-0.37334-0.0266-0.73334-0.0667-1.08-0.12v-10.64c0.39999-0.0266,0.79999-0.04,1.2-0.04,0.42666,0.00003,0.89332,0.00003,1.4,0,2.1066,0.00003,3.6666,0.45336,4.68,1.36,1.0133,0.90669,1.52,2.2,1.52,3.88"/>
   <path id="path3802" fill="#FFF" d="m133.56,242.12c-1.0934-0.10664-2.04-0.0266-2.84,0.24-0.80001,0.24002-1.4933,0.61336-2.08,1.12-0.58668,0.48002-1.0667,1.0534-1.44,1.72-0.37334,0.64002-0.66667,1.3067-0.88,2h-0.04c0.13333-0.82665,0.22666-1.6666,0.28-2.52,0.08-0.85331,0.11999-1.5866,0.12-2.2-1.12-0.0533-2.3067-0.0533-3.56,0-1.2533,0.0534-2.3867,0.14669-3.4,0.28v2.12c0.58666,0.0533,1.1867,0.12002,1.8,0.2,0.64,0.0533,1.2,0.12002,1.68,0.2v14.4c-1.2533,0.08-2.4133,0.26667-3.48,0.56v2.12h10.56v-2.12c-1.0667-0.29333-2.2267-0.47999-3.48-0.56v-5.32c-0.00001-3.2,0.51999-5.5466,1.56-7.04,1.0667-1.4933,2.7466-2.0533,5.04-1.68l0.16-3.52"/>
   <path id="path3804" fill="#FFF" d="m154.47,252.08c-0.00002-1.7866-0.22668-3.3066-0.68-4.56-0.45335-1.28-1.08-2.32-1.88-3.12-0.80001-0.79998-1.7467-1.3733-2.84-1.72-1.0933-0.37331-2.28-0.55998-3.56-0.56-1.4933,0.00002-2.84,0.28002-4.04,0.84-1.2,0.53335-2.2267,1.28-3.08,2.24-0.82666,0.93335-1.4667,2.04-1.92,3.32-0.42666,1.2534-0.64,2.6134-0.64,4.08,0,1.76,0.21334,3.28,0.64,4.56,0.42667,1.2533,1.0267,2.2933,1.8,3.12,0.77333,0.82667,1.7067,1.44,2.8,1.84s2.32,0.6,3.68,0.6c1.4667,0,2.8-0.26666,4-0.8,1.2-0.56,2.2133-1.32,3.04-2.28,0.85332-0.95999,1.5066-2.08,1.96-3.36,0.47999-1.3067,0.71998-2.7067,0.72-4.2m-3.76,0.2c-0.00001,1.28-0.14668,2.3867-0.44,3.32-0.29334,0.90668-0.69334,1.6667-1.2,2.28-0.50668,0.61334-1.0933,1.0667-1.76,1.36-0.66667,0.29334-1.3733,0.44001-2.12,0.44-1.84,0.00001-3.24-0.62666-4.2-1.88-0.93333-1.28-1.4-3.1333-1.4-5.56,0-1.2266,0.14667-2.28,0.44-3.16,0.32-0.90665,0.73333-1.6533,1.24-2.24,0.53333-0.58665,1.1333-1.0133,1.8-1.28,0.69333-0.29331,1.4-0.43998,2.12-0.44,1.84,0.00002,3.2133,0.62669,4.12,1.88,0.93332,1.2534,1.4,3.0134,1.4,5.28"/>
   <path id="path3806" fill="#FFF" d="m172.58,261.6-0.24-3.12c-0.69335,0.34667-1.4667,0.61334-2.32,0.8-0.85335,0.18667-1.7067,0.28001-2.56,0.28-1.1733,0.00001-2.1467-0.17333-2.92-0.52-0.77334-0.37333-1.3867-0.86666-1.84-1.48-0.45334-0.63999-0.77334-1.3867-0.96-2.24-0.18667-0.87999-0.28001-1.8267-0.28-2.84-0.00001-2.2666,0.49333-4.0666,1.48-5.4,0.98666-1.3333,2.4133-2,4.28-2,0.45332,0.00002,0.89332,0.0267,1.32,0.08,0.42665,0.0533,0.81332,0.14669,1.16,0.28,0.0533,0.48002,0.11999,1,0.2,1.56,0.08,0.53335,0.18665,1.0934,0.32,1.68h2.24v-5.8c-0.69335-0.21331-1.4667-0.37331-2.32-0.48-0.85335-0.13331-1.6667-0.19998-2.44-0.2-1.68,0.00002-3.1467,0.26669-4.4,0.8-1.2533,0.53335-2.2933,1.28-3.12,2.24-0.82667,0.96002-1.4533,2.1067-1.88,3.44-0.4,1.3334-0.6,2.8-0.6,4.4,0,1.84,0.24,3.3733,0.72,4.6,0.48,1.2,1.12,2.1733,1.92,2.92,0.82666,0.74667,1.7867,1.28,2.88,1.6,1.0933,0.29334,2.2533,0.44,3.48,0.44,1.2,0,2.2933-0.10666,3.28-0.32,1.0133-0.21333,1.88-0.45333,2.6-0.72"/>
   <path id="path3808" fill="#FFF" d="m192.36,250.48c-0.00002-1.1466-0.16002-2.2266-0.48-3.24-0.29335-1.0133-0.76002-1.8933-1.4-2.64-0.64002-0.77331-1.4667-1.3733-2.48-1.8-1.0134-0.45331-2.2134-0.67998-3.6-0.68-1.4133,0.00002-2.6667,0.26669-3.76,0.8-1.0933,0.50669-2.0267,1.2267-2.8,2.16-0.74667,0.93335-1.32,2.04-1.72,3.32-0.4,1.2534-0.6,2.6267-0.6,4.12,0,3.52,0.8,6.1067,2.4,7.76,1.6,1.6267,3.9333,2.44,7,2.44,2.5066,0,4.7466-0.41333,6.72-1.24l-0.32-2.92c-0.80002,0.37334-1.72,0.68001-2.76,0.92-1.0134,0.21334-2.0267,0.32001-3.04,0.32-2.1333,0.00001-3.7333-0.59999-4.8-1.8s-1.56-3.1333-1.48-5.8h13c0.08-0.66665,0.11998-1.24,0.12-1.72m-3.68-0.84-9.28,0c0.21333-1.4666,0.74666-2.64,1.6-3.52,0.85333-0.90665,1.9333-1.36,3.24-1.36,1.4133,0.00002,2.52,0.45335,3.32,1.36,0.79999,0.88002,1.1733,2.0534,1.12,3.52"/>
   <path id="path3810" fill="#FFF" d="m209.67,256.28c-0.00002-1.0933-0.25335-1.96-0.76-2.6-0.48001-0.66665-1.0934-1.1866-1.84-1.56-0.72001-0.39999-1.52-0.70665-2.4-0.92-0.85334-0.23999-1.6533-0.49332-2.4-0.76-0.72001-0.26665-1.3333-0.59998-1.84-1-0.48001-0.42665-0.72001-1.0133-0.72-1.76-0.00001-0.90665,0.33333-1.6133,1-2.12,0.66666-0.53331,1.68-0.79998,3.04-0.8,0.74666,0.00002,1.4933,0.0667,2.24,0.2,0.0533,0.53335,0.10665,1.0667,0.16,1.6,0.08,0.53335,0.18665,1.0534,0.32,1.56h2.2v-5.44c-0.77335-0.18664-1.56-0.31998-2.36-0.4-0.80001-0.10664-1.5467-0.15998-2.24-0.16-2.6133,0.00002-4.6,0.57336-5.96,1.72-1.36,1.12-2.04,2.5334-2.04,4.24,0,1.1467,0.24,2.0667,0.72,2.76,0.50666,0.66668,1.1333,1.2,1.88,1.6,0.74666,0.40001,1.5467,0.72001,2.4,0.96,0.85333,0.21334,1.6533,0.45334,2.4,0.72,0.74666,0.26668,1.36,0.60001,1.84,1,0.50666,0.40001,0.75999,0.96001,0.76,1.68-0.00001,0.96001-0.41334,1.72-1.24,2.28-0.82668,0.56001-1.92,0.84001-3.28,0.84-0.82667,0.00001-1.6133-0.0667-2.36-0.2-0.0533-0.53333-0.12-1.0667-0.2-1.6-0.08-0.55999-0.17334-1.08-0.28-1.56h-2.2v5.64c0.66666,0.18667,1.4133,0.32,2.24,0.4,0.85333,0.08,1.6667,0.12,2.44,0.12,1.3067,0,2.48-0.16,3.52-0.48,1.0667-0.34666,1.96-0.8,2.68-1.36,0.74665-0.58666,1.3066-1.2667,1.68-2.04,0.39998-0.79999,0.59998-1.6533,0.6-2.56"/>
   <path id="path3812" fill="#FFF" d="m227.09,256.28c-0.00001-1.0933-0.25334-1.96-0.76-2.6-0.48001-0.66665-1.0933-1.1866-1.84-1.56-0.72001-0.39999-1.52-0.70665-2.4-0.92-0.85334-0.23999-1.6533-0.49332-2.4-0.76-0.72-0.26665-1.3333-0.59998-1.84-1-0.48-0.42665-0.72-1.0133-0.72-1.76,0-0.90665,0.33333-1.6133,1-2.12,0.66666-0.53331,1.68-0.79998,3.04-0.8,0.74666,0.00002,1.4933,0.0667,2.24,0.2,0.0533,0.53335,0.10666,1.0667,0.16,1.6,0.08,0.53335,0.18666,1.0534,0.32,1.56h2.2v-5.44c-0.77334-0.18664-1.56-0.31998-2.36-0.4-0.80001-0.10664-1.5467-0.15998-2.24-0.16-2.6133,0.00002-4.6,0.57336-5.96,1.72-1.36,1.12-2.04,2.5334-2.04,4.24,0,1.1467,0.24,2.0667,0.72,2.76,0.50667,0.66668,1.1333,1.2,1.88,1.6,0.74667,0.40001,1.5467,0.72001,2.4,0.96,0.85333,0.21334,1.6533,0.45334,2.4,0.72,0.74666,0.26668,1.36,0.60001,1.84,1,0.50666,0.40001,0.75999,0.96001,0.76,1.68-0.00001,0.96001-0.41334,1.72-1.24,2.28-0.82667,0.56001-1.92,0.84001-3.28,0.84-0.82668,0.00001-1.6133-0.0667-2.36-0.2-0.0533-0.53333-0.12-1.0667-0.2-1.6-0.08-0.55999-0.17333-1.08-0.28-1.56h-2.2v5.64c0.66667,0.18667,1.4133,0.32,2.24,0.4,0.85333,0.08,1.6667,0.12,2.44,0.12,1.3067,0,2.48-0.16,3.52-0.48,1.0667-0.34666,1.96-0.8,2.68-1.36,0.74666-0.58666,1.3067-1.2667,1.68-2.04,0.39999-0.79999,0.59999-1.6533,0.6-2.56"/>
   <path id="path3814" fill="#FFF" d="m237.87,236.84c-0.00001-0.66664-0.24001-1.2133-0.72-1.64-0.45334-0.4533-1-0.67997-1.64-0.68-0.66667,0.00003-1.24,0.2267-1.72,0.68-0.45334,0.45336-0.68,1-0.68,1.64,0,0.66669,0.22666,1.2267,0.68,1.68,0.47999,0.45336,1.0533,0.68003,1.72,0.68,0.63999,0.00003,1.1867-0.22664,1.64-0.68,0.47999-0.47997,0.71999-1.04,0.72-1.68m2.76,25.52,0-2.12c-1.04-0.29333-2.16-0.47999-3.36-0.56v-17.2c-1.1733-0.0533-2.4-0.0533-3.68,0-1.2533,0.0534-2.3867,0.14669-3.4,0.28v2.12c0.58666,0.0533,1.1867,0.12002,1.8,0.2,0.64,0.0533,1.2,0.12002,1.68,0.2v14.4c-1.2533,0.08-2.4133,0.26667-3.48,0.56v2.12h10.44"/>
   <path id="path3816" fill="#FFF" d="m258.73,262.36,6.96,0,0-2.12c-1.04-0.29333-2.16-0.47999-3.36-0.56v-11.24c-0.00002-0.87998-0.10668-1.7066-0.32-2.48-0.18668-0.77331-0.50668-1.44-0.95999-2-0.45336-0.58665-1.0667-1.04-1.84-1.36-0.77335-0.34664-1.72-0.51998-2.84-0.52-1.7334,0.00002-3.2,0.42669-4.4,1.28-1.1733,0.82669-2.0533,1.9334-2.64,3.32l-0.04-0.04c0.10666-0.58665,0.17333-1.28,0.2-2.08,0.0533-0.79998,0.08-1.4933,0.08-2.08-1.12-0.0533-2.3067-0.0533-3.56,0-1.2533,0.0534-2.3867,0.14669-3.4,0.28v2.12c0.58667,0.0533,1.1867,0.12002,1.8,0.2,0.64,0.0533,1.2,0.12002,1.68,0.2v14.4c-1.2533,0.08-2.4133,0.26667-3.48,0.56v2.12h10.28v-2.16c-0.48001-0.13333-1-0.23999-1.56-0.32-0.56-0.08-1.1067-0.14666-1.64-0.2v-6.88c0-1.0933,0.13333-2.1066,0.4-3.04,0.29333-0.95998,0.69333-1.7866,1.2-2.48,0.50666-0.69331,1.1067-1.2266,1.8-1.6,0.69333-0.39998,1.4533-0.59998,2.28-0.6,1.3066,0.00002,2.1866,0.38669,2.64,1.16,0.47999,0.77335,0.71999,1.8667,0.72,3.28v12.84"/>
   <path id="path3818" fill="#FFF" d="m287.05,265.12c-0.00003-1.76-0.58669-3.12-1.76-4.08-1.1734-0.98666-2.84-1.48-5-1.48h-3.68c-1.2,0.00001-2.0667-0.11999-2.6-0.36-0.53334-0.23999-0.8-0.63999-0.8-1.2,0-0.31999,0.0933-0.62666,0.28001-0.92,0.18665-0.29333,0.50665-0.54666,0.95999-0.76,0.34666,0.10668,0.74666,0.18668,1.2,0.24,0.45333,0.0267,0.87999,0.04,1.28,0.04,1.44,0.00001,2.7066-0.18666,3.8-0.56,1.0933-0.37332,2-0.87999,2.72-1.52,0.74665-0.66666,1.2933-1.4533,1.64-2.36,0.37332-0.90665,0.55999-1.8933,0.56-2.96-0.00001-0.85332-0.14668-1.6133-0.44-2.28-0.29335-0.66665-0.70668-1.2-1.24-1.6h3.36v-2.84h-6.76c-1.0133-0.23998-2.0533-0.35998-3.12-0.36-1.4133,0.00002-2.6667,0.20002-3.76,0.6-1.0667,0.40002-1.9733,0.96002-2.72,1.68-0.74667,0.69335-1.32,1.5067-1.72,2.44-0.37333,0.90668-0.56,1.88-0.56,2.92,0,1.3067,0.25334,2.4534,0.76,3.44,0.50667,0.96001,1.2267,1.7067,2.16,2.24-0.66668,0.34668-1.2,0.82668-1.6,1.44-0.4,0.58667-0.6,1.2267-0.6,1.92,0,0.66667,0.17334,1.2533,0.52001,1.76,0.34666,0.48,0.82666,0.86667,1.44,1.16-0.90668,0.45334-1.68,1.12-2.32,2-0.64001,0.90667-0.96001,1.96-0.96001,3.16,0,1.92,0.74667,3.3733,2.24,4.36,1.4933,0.98666,3.5333,1.48,6.12,1.48,1.5467-0.00001,2.9733-0.20001,4.28-0.6,1.3067-0.37334,2.4266-0.90667,3.36-1.6,0.93332-0.66667,1.6533-1.4667,2.16-2.4,0.53332-0.93334,0.79998-1.9333,0.80001-3m-4.96-15.68c-0.00001,1.4934-0.44001,2.6267-1.32,3.4-0.88001,0.77334-2.08,1.16-3.6,1.16-1.5734,0.00001-2.7867-0.38666-3.64-1.16-0.85333-0.77332-1.28-1.9066-1.28-3.4,0-1.36,0.44-2.4666,1.32-3.32,0.88-0.87998,2.12-1.32,3.72-1.32,1.5467,0.00002,2.7333,0.41335,3.56,1.24,0.82666,0.82668,1.24,1.96,1.24,3.4m1.36,16.16c-0.00001,1.28-0.56001,2.3067-1.68,3.08-1.12,0.77333-2.7067,1.16-4.76,1.16-1.5467,0-2.8267-0.30667-3.84-0.92-0.98668-0.61334-1.48-1.52-1.48-2.72,0-0.77333,0.21333-1.48,0.64-2.12,0.42667-0.61333,1.0267-1.12,1.8-1.52h1.24,3.92c1.4133,0,2.4533,0.26667,3.12,0.8,0.69332,0.56,1.04,1.3067,1.04,2.24"/>
   <path id="path3820" fill="#c9ffc9" d="m293.28,257.76c-0.69334,0.00001-1.28,0.24001-1.76,0.72-0.48,0.48001-0.72,1.0667-0.72,1.76,0,0.69334,0.24,1.28,0.72,1.76s1.0667,0.72,1.76,0.72c0.69333,0,1.28-0.24,1.76-0.72,0.47999-0.48,0.71999-1.0667,0.72-1.76-0.00001-0.69333-0.24001-1.28-0.72-1.76-0.48001-0.47999-1.0667-0.71999-1.76-0.72"/>
   <path id="path3822" fill="#c9ffc9" d="m319.66,251.48c-0.00002-3.0666-0.64002-5.3866-1.92-6.96-1.2534-1.6-3.0534-2.4-5.4-2.4-1.5734,0.00002-2.9334,0.40002-4.08,1.2-1.1467,0.77335-2,1.8534-2.56,3.24l-0.08-0.04c0.13333-0.55998,0.21333-1.2266,0.24-2,0.0267-0.79998,0.04-1.48,0.04-2.04-1.0667-0.0533-2.24-0.0533-3.52,0-1.2533,0.0534-2.3867,0.14669-3.4,0.28v2.12c0.58667,0.0533,1.1867,0.12002,1.8,0.2,0.63999,0.0533,1.2,0.12002,1.68,0.2v24.28c-0.61334,0.0533-1.2133,0.12-1.8,0.2-0.58666,0.08-1.1467,0.18666-1.68,0.32v2.16h10.56v-2.16c-0.53334-0.13334-1.0933-0.24-1.68-0.32-0.58667-0.08-1.1867-0.14667-1.8-0.2v-7.2c0.58666,0.10667,1.1333,0.17334,1.64,0.2,0.53333,0.0267,1.1067,0.04,1.72,0.04,3.2267,0,5.7333-0.96,7.52-2.88,1.8133-1.92,2.72-4.6667,2.72-8.24m-3.76,0.32c-0.00002,1.44-0.16002,2.6667-0.48001,3.68-0.29335,1.0133-0.72001,1.84-1.28,2.48-0.56001,0.64001-1.2267,1.1067-2,1.4-0.77334,0.29334-1.6267,0.44001-2.56,0.44-1.3067,0.00001-2.48-0.15999-3.52-0.48v-6.56c0-0.87999,0.10666-1.7733,0.32-2.68,0.24-0.90665,0.58666-1.72,1.04-2.44,0.45333-0.74665,1.0133-1.36,1.68-1.84,0.69333-0.47998,1.4933-0.71998,2.4-0.72,1.52,0.00002,2.6267,0.58669,3.32,1.76,0.71999,1.1467,1.08,2.8,1.08,4.96"/>
   <path id="path3824" fill="#c9ffc9" d="m343.22,244.64,0-2.16-8.88,0,0,2.16c0.79999,0.26669,1.6666,0.41335,2.6,0.44l-2.68,7.68c-0.37335,1.1467-0.73335,2.2533-1.08,3.32-0.34668,1.04-0.60001,1.9067-0.76,2.6h-0.08c-0.21334-0.82666-0.44001-1.6267-0.68-2.4-0.24001-0.77332-0.52001-1.6267-0.84-2.56l-3-8.64c0.93333-0.0266,1.8-0.17331,2.6-0.44v-2.16h-9.12v2.16c0.37333,0.10669,0.77333,0.20002,1.2,0.28,0.45333,0.08,0.90666,0.14669,1.36,0.2l6.16,17.24h0.88l-0.84,2.24c-0.37334,0.96-0.73334,1.7467-1.08,2.36-0.34667,0.64-0.70667,1.1467-1.08,1.52-0.37334,0.4-0.78667,0.66666-1.24,0.8-0.42667,0.16-0.90667,0.24-1.44,0.24-0.45334,0-0.89334-0.04-1.32-0.12-0.42667-0.08-0.86667-0.18667-1.32-0.32l-0.28,3.24c0.42667,0.08,0.89333,0.13333,1.4,0.16,0.50666,0.0533,0.94666,0.08,1.32,0.08,1.12-0.00001,2.0933-0.13334,2.92-0.4,0.82666-0.26667,1.5733-0.72001,2.24-1.36,0.66666-0.64001,1.2667-1.48,1.8-2.52,0.55999-1.0133,1.12-2.28,1.68-3.8l7.04-19.36c0.45331-0.0533,0.89331-0.11998,1.32-0.2,0.42665-0.08,0.82664-0.17331,1.2-0.28"/>
  </g>
 </g>
</svg>
